<svg t="1603789057466" class="icon" viewBox="0 0 1024 1024" version="1.1" xmlns="http://www.w3.org/2000/svg" p-id="5706" width="200" height="200"><path d="M256 0H51.2C23.04 0 0 23.04 0 51.2V256c0 28.16 23.04 51.2 51.2 51.2H256c28.16 0 51.2-23.04 51.2-51.2V51.2C307.2 23.04 284.16 0 256 0z m0 230.4c0 14.144-11.456 25.6-25.6 25.6H76.8c-14.144 0-25.6-11.456-25.6-25.6V76.8c0-14.144 11.456-25.6 25.6-25.6h153.6c14.144 0 25.6 11.456 25.6 25.6v153.6zM256 716.8H51.2C23.04 716.8 0 739.84 0 768v204.8c0 28.16 23.04 51.2 51.2 51.2H256c28.16 0 51.2-23.04 51.2-51.2V768c0-28.16-23.04-51.2-51.2-51.2z m0 230.4c0 14.144-11.456 25.6-25.6 25.6H76.8c-14.144 0-25.6-11.456-25.6-25.6V793.6c0-14.144 11.456-25.6 25.6-25.6h153.6c14.144 0 25.6 11.456 25.6 25.6v153.6zM972.8 716.8H768c-28.16 0-51.2 23.04-51.2 51.2v204.8c0 28.16 23.04 51.2 51.2 51.2h204.8c28.16 0 51.2-23.04 51.2-51.2V768c0-28.16-23.04-51.2-51.2-51.2z m0 230.4c0 14.144-11.456 25.6-25.6 25.6H793.6c-14.144 0-25.6-11.456-25.6-25.6V793.6c0-14.144 11.456-25.6 25.6-25.6h153.6c14.144 0 25.6 11.456 25.6 25.6v153.6zM614.4 716.8H409.6c-28.16 0-51.2 23.04-51.2 51.2v204.8c0 28.16 23.04 51.2 51.2 51.2h204.8c28.16 0 51.2-23.04 51.2-51.2V768c0-28.16-23.04-51.2-51.2-51.2z m0 230.4c0 14.144-11.456 25.6-25.6 25.6H435.2c-14.144 0-25.6-11.456-25.6-25.6V793.6c0-14.144 11.456-25.6 25.6-25.6h153.6c14.144 0 25.6 11.456 25.6 25.6v153.6zM972.8 0H768c-28.16 0-51.2 23.04-51.2 51.2V256c0 28.16 23.04 51.2 51.2 51.2h204.8c28.16 0 51.2-23.04 51.2-51.2V51.2c0-28.16-23.04-51.2-51.2-51.2z m0 230.4c0 14.144-11.456 25.6-25.6 25.6H793.6c-14.144 0-25.6-11.456-25.6-25.6V76.8c0-14.144 11.456-25.6 25.6-25.6h153.6c14.144 0 25.6 11.456 25.6 25.6v153.6zM614.4 0H409.6c-28.16 0-51.2 23.04-51.2 51.2V256c0 28.16 23.04 51.2 51.2 51.2h204.8c28.16 0 51.2-23.04 51.2-51.2V51.2c0-28.16-23.04-51.2-51.2-51.2z m0 230.4c0 14.144-11.456 25.6-25.6 25.6H435.2c-14.144 0-25.6-11.456-25.6-25.6V76.8c0-14.144 11.456-25.6 25.6-25.6h153.6c14.144 0 25.6 11.456 25.6 25.6v153.6zM256 358.4H51.2C23.04 358.4 0 381.44 0 409.6v204.8c0 28.16 23.04 51.2 51.2 51.2H256c28.16 0 51.2-23.04 51.2-51.2V409.6c0-28.16-23.04-51.2-51.2-51.2z m0 230.4c0 14.144-11.456 25.6-25.6 25.6H76.8c-14.144 0-25.6-11.456-25.6-25.6V435.2c0-14.144 11.456-25.6 25.6-25.6h153.6c14.144 0 25.6 11.456 25.6 25.6v153.6zM972.8 358.4H768c-28.16 0-51.2 23.04-51.2 51.2v204.8c0 28.16 23.04 51.2 51.2 51.2h204.8c28.16 0 51.2-23.04 51.2-51.2V409.6c0-28.16-23.04-51.2-51.2-51.2z m0 230.4c0 14.144-11.456 25.6-25.6 25.6H793.6c-14.144 0-25.6-11.456-25.6-25.6V435.2c0-14.144 11.456-25.6 25.6-25.6h153.6c14.144 0 25.6 11.456 25.6 25.6v153.6zM614.4 358.4H409.6c-28.16 0-51.2 23.04-51.2 51.2v204.8c0 28.16 23.04 51.2 51.2 51.2h204.8c28.16 0 51.2-23.04 51.2-51.2V409.6c0-28.16-23.04-51.2-51.2-51.2z m0 230.4c0 14.144-11.456 25.6-25.6 25.6H435.2c-14.144 0-25.6-11.456-25.6-25.6V435.2c0-14.144 11.456-25.6 25.6-25.6h153.6c14.144 0 25.6 11.456 25.6 25.6v153.6z" fill="#5182E4" p-id="5707"></path></svg>