<svg t="1603788918927" class="icon" viewBox="0 0 1024 1024" version="1.1" xmlns="http://www.w3.org/2000/svg" p-id="3932" width="200" height="200"><path d="M128 64h288a64 64 0 0 1 64 64v288a64 64 0 0 1-64 64H128a64 64 0 0 1-64-64V128a64 64 0 0 1 64-64z m0 96v224a32 32 0 0 0 32 32h224a32 32 0 0 0 32-32V160a32 32 0 0 0-32-32H160a32 32 0 0 0-32 32zM128 544h288a64 64 0 0 1 64 64v288a64 64 0 0 1-64 64H128a64 64 0 0 1-64-64v-288a64 64 0 0 1 64-64z m0 96v224a32 32 0 0 0 32 32h224a32 32 0 0 0 32-32v-224a32 32 0 0 0-32-32H160a32 32 0 0 0-32 32z" fill="#026BFF" p-id="3933"></path><path d="M544 160m32 0l352 0q32 0 32 32l0 0q0 32-32 32l-352 0q-32 0-32-32l0 0q0-32 32-32Z" fill="#026BFF" p-id="3934"></path><path d="M544 640m32 0l352 0q32 0 32 32l0 0q0 32-32 32l-352 0q-32 0-32-32l0 0q0-32 32-32Z" fill="#026BFF" p-id="3935"></path><path d="M544 320m32 0l352 0q32 0 32 32l0 0q0 32-32 32l-352 0q-32 0-32-32l0 0q0-32 32-32Z" fill="#026BFF" p-id="3936"></path><path d="M544 800m32 0l352 0q32 0 32 32l0 0q0 32-32 32l-352 0q-32 0-32-32l0 0q0-32 32-32Z" fill="#026BFF" p-id="3937"></path></svg>