<svg t="1606199059066" class="icon" viewBox="0 0 1024 1024" version="1.1" xmlns="http://www.w3.org/2000/svg" p-id="3462" width="200" height="200"><path d="M513.0752 676.2752c87.68 0 159.0016-73.7024 159.0016-164.2752s-71.3216-164.2752-159.0016-164.2752S354.0736 421.4272 354.0736 512 425.3952 676.2752 513.0752 676.2752zM513.0752 386.1248c66.5088 0 120.6016 56.4736 120.6016 125.8752s-54.0928 125.8752-120.6016 125.8752S392.4736 581.4016 392.4736 512 446.5664 386.1248 513.0752 386.1248z" p-id="3463"></path><path d="M56.8064 513.92c76.3392 195.6608 257.1264 322.0736 460.4928 322.0736 203.4432 0 384.256-126.4128 460.5952-322.0736l2.7136-6.9632-2.7136-6.9632C901.5296 304.3584 720.7168 177.9456 517.2992 177.9456c-203.3664 0-384.128 126.4128-460.4928 322.0224l-2.7136 6.9632L56.8064 513.92zM517.2992 216.3456c185.0624 0 349.952 113.792 422.0416 290.6112-72.0896 176.8192-236.9792 290.6624-422.0416 290.6624-185.0368 0-349.8496-113.8176-421.9392-290.6624C167.4496 330.1376 332.2624 216.3456 517.2992 216.3456z" p-id="3464"></path></svg>